<svg width="142" height="24" viewBox="0 0 142 24" fill="none" xmlns="http://www.w3.org/2000/svg">
<path d="M14.18 2.09V4.31H8.48V23H5.75V4.31H0.0200001V2.09H14.18ZM16.5205 14.72C16.5205 13.04 16.8605 11.57 17.5405 10.31C18.2205 9.03 19.1505 8.04 20.3305 7.34C21.5305 6.64 22.8605 6.29 24.3205 6.29C25.7605 6.29 27.0105 6.6 28.0705 7.22C29.1305 7.84 29.9205 8.62 30.4405 9.56V6.56H33.2005V23H30.4405V19.94C29.9005 20.9 29.0905 21.7 28.0105 22.34C26.9505 22.96 25.7105 23.27 24.2905 23.27C22.8305 23.27 21.5105 22.91 20.3305 22.19C19.1505 21.47 18.2205 20.46 17.5405 19.16C16.8605 17.86 16.5205 16.38 16.5205 14.72ZM30.4405 14.75C30.4405 13.51 30.1905 12.43 29.6905 11.51C29.1905 10.59 28.5105 9.89 27.6505 9.41C26.8105 8.91 25.8805 8.66 24.8605 8.66C23.8405 8.66 22.9105 8.9 22.0705 9.38C21.2305 9.86 20.5605 10.56 20.0605 11.48C19.5605 12.4 19.3105 13.48 19.3105 14.72C19.3105 15.98 19.5605 17.08 20.0605 18.02C20.5605 18.94 21.2305 19.65 22.0705 20.15C22.9105 20.63 23.8405 20.87 24.8605 20.87C25.8805 20.87 26.8105 20.63 27.6505 20.15C28.5105 19.65 29.1905 18.94 29.6905 18.02C30.1905 17.08 30.4405 15.99 30.4405 14.75ZM43.6339 23.27C42.3739 23.27 41.2439 23.06 40.2439 22.64C39.2439 22.2 38.4539 21.6 37.8739 20.84C37.2939 20.06 36.9739 19.17 36.9139 18.17H39.7339C39.8139 18.99 40.1939 19.66 40.8739 20.18C41.5739 20.7 42.4839 20.96 43.6039 20.96C44.6439 20.96 45.4639 20.73 46.0639 20.27C46.6639 19.81 46.9639 19.23 46.9639 18.53C46.9639 17.81 46.6439 17.28 46.0039 16.94C45.3639 16.58 44.3739 16.23 43.0339 15.89C41.8139 15.57 40.8139 15.25 40.0339 14.93C39.2739 14.59 38.6139 14.1 38.0539 13.46C37.5139 12.8 37.2439 11.94 37.2439 10.88C37.2439 10.04 37.4939 9.27 37.9939 8.57C38.4939 7.87 39.2039 7.32 40.1239 6.92C41.0439 6.5 42.0939 6.29 43.2739 6.29C45.0939 6.29 46.5639 6.75 47.6839 7.67C48.8039 8.59 49.4039 9.85 49.4839 11.45H46.7539C46.6939 10.59 46.3439 9.9 45.7039 9.38C45.0839 8.86 44.2439 8.6 43.1839 8.6C42.2039 8.6 41.4239 8.81 40.8439 9.23C40.2639 9.65 39.9739 10.2 39.9739 10.88C39.9739 11.42 40.1439 11.87 40.4839 12.23C40.8439 12.57 41.2839 12.85 41.8039 13.07C42.3439 13.27 43.0839 13.5 44.0239 13.76C45.2039 14.08 46.1639 14.4 46.9039 14.72C47.6439 15.02 48.2739 15.48 48.7939 16.1C49.3339 16.72 49.6139 17.53 49.6339 18.53C49.6339 19.43 49.3839 20.24 48.8839 20.96C48.3839 21.68 47.6739 22.25 46.7539 22.67C45.8539 23.07 44.8139 23.27 43.6339 23.27ZM62.6677 23L56.2177 15.74V23H53.4877V0.8H56.2177V13.85L62.5477 6.56H66.3577L58.6177 14.75L66.3877 23H62.6677Z" fill="black"/>
<path d="M86.5972 23H82.3972L72.8872 8.63V23H68.6872V2.03H72.8872L82.3972 16.43V2.03H86.5972V23ZM98.1277 23.27C96.5277 23.27 95.0877 22.92 93.8077 22.22C92.5277 21.5 91.5177 20.49 90.7777 19.19C90.0577 17.89 89.6977 16.39 89.6977 14.69C89.6977 12.99 90.0677 11.49 90.8077 10.19C91.5677 8.89 92.5977 7.89 93.8977 7.19C95.1977 6.47 96.6477 6.11 98.2477 6.11C99.8477 6.11 101.298 6.47 102.598 7.19C103.898 7.89 104.918 8.89 105.658 10.19C106.418 11.49 106.798 12.99 106.798 14.69C106.798 16.39 106.408 17.89 105.628 19.19C104.868 20.49 103.828 21.5 102.508 22.22C101.208 22.92 99.7477 23.27 98.1277 23.27ZM98.1277 19.61C98.8877 19.61 99.5977 19.43 100.258 19.07C100.938 18.69 101.478 18.13 101.878 17.39C102.278 16.65 102.478 15.75 102.478 14.69C102.478 13.11 102.058 11.9 101.218 11.06C100.398 10.2 99.3877 9.77 98.1877 9.77C96.9877 9.77 95.9777 10.2 95.1577 11.06C94.3577 11.9 93.9577 13.11 93.9577 14.69C93.9577 16.27 94.3477 17.49 95.1277 18.35C95.9277 19.19 96.9277 19.61 98.1277 19.61ZM132.919 6.38L128.059 23H123.529L120.499 11.39L117.469 23H112.909L108.019 6.38H112.279L115.219 19.04L118.399 6.38H122.839L125.959 19.01L128.899 6.38H132.919Z" fill="#FE504F"/>
<path d="M137.651 23.24C136.611 23.24 135.771 22.96 135.131 22.4C134.511 21.82 134.201 21.09 134.201 20.21C134.201 19.33 134.511 18.6 135.131 18.02C135.771 17.44 136.611 17.15 137.651 17.15C138.671 17.15 139.491 17.44 140.111 18.02C140.751 18.6 141.071 19.33 141.071 20.21C141.071 21.07 140.751 21.79 140.111 22.37C139.491 22.95 138.671 23.24 137.651 23.24Z" fill="#E2FB70"/>
</svg>
