<svg width="764" height="657" viewBox="0 0 764 657" fill="none" xmlns="http://www.w3.org/2000/svg">
<path d="M887 0V888H36.3871C16.2911 888 0 871.709 0 851.613C0 381.28 381.28 0 851.613 0L887 0Z" fill="#5B8D40"/>
<path d="M887 65.2942V888H107.628C89.0098 888 73.9167 872.907 73.9167 854.288C73.9167 418.539 427.161 65.2942 862.911 65.2942H887Z" fill="#E1FC70"/>
<path d="M887 130.588V888H190.973C173.832 888 159.937 874.105 159.937 856.964C159.937 455.798 485.834 130.588 887 130.588Z" fill="#FF5050"/>
<path d="M697.7 585.555L724.057 589.265L715.532 563.699C713.506 557.624 709.992 552.215 705.351 548.029L701.788 544.816C699.07 542.364 695.746 540.792 692.218 540.289C679.379 538.46 668.931 550.841 672.079 564.156L672.201 564.67C673.158 568.719 675.292 572.358 678.301 575.071L681.392 577.858C686.023 582.035 691.689 584.709 697.7 585.555Z" fill="#1C0B04"/>
<path d="M617.249 657.47L643.791 654.903L630.114 631.919C626.893 626.505 622.34 622.064 616.944 619.072L613.016 616.894C609.716 615.063 605.996 614.273 602.323 614.622C589.384 615.851 581.9 630.113 587.758 642.381L587.99 642.867C589.83 646.721 592.794 649.893 596.446 651.918L599.8 653.778C605.185 656.765 611.257 658.049 617.249 657.47Z" fill="#1C0B04"/>
<path d="M663.71 432.406L688.253 443.034L686.113 416.081C685.599 409.61 683.493 403.422 680.001 398.126L677.155 393.81C675.215 390.868 672.514 388.58 669.363 387.209C657.426 382.016 644.09 391.405 643.958 405.094L643.953 405.606C643.914 409.605 645.045 413.497 647.192 416.754L649.701 420.558C653.187 425.845 658.044 429.953 663.71 432.406Z" fill="#1C0B04"/>
<path d="M758.736 393.462L782.354 406.177L782.308 379.15C782.297 372.641 780.677 366.287 777.606 360.704L775.062 356.079C773.383 353.027 770.905 350.55 767.911 348.932C756.432 342.726 742.328 350.979 741.137 364.598L741.093 365.102C740.75 369.034 741.562 372.952 743.42 376.332L745.672 380.426C748.738 385.998 753.265 390.516 758.736 393.462Z" fill="#1C0B04"/>
<path d="M586.825 481.085L613.182 484.794L604.657 459.228C602.631 453.153 599.117 447.744 594.476 443.559L590.913 440.345C588.195 437.893 584.871 436.321 581.343 435.819C568.504 433.989 558.056 446.37 561.204 459.685L561.326 460.199C562.283 464.248 564.417 467.887 567.426 470.6L570.517 473.388C575.148 477.565 580.814 480.239 586.825 481.085Z" fill="#1C0B04"/>
<path d="M586.825 481.085L613.182 484.794L604.657 459.228C602.631 453.153 599.117 447.744 594.476 443.559L590.913 440.345C588.195 437.893 584.871 436.321 581.343 435.819C568.504 433.989 558.056 446.37 561.204 459.685L561.326 460.199C562.283 464.248 564.417 467.887 567.426 470.6L570.517 473.388C575.148 477.565 580.814 480.239 586.825 481.085Z" fill="#1C0B04"/>
<path d="M506.374 552.999L532.916 550.433L519.239 527.448C516.018 522.035 511.465 517.594 506.069 514.601L502.141 512.423C498.841 510.593 495.121 509.803 491.448 510.151C478.509 511.38 471.025 525.643 476.883 537.91L477.115 538.396C478.955 542.25 481.919 545.423 485.571 547.448L488.925 549.308C494.31 552.294 500.382 553.579 506.374 552.999Z" fill="#1C0B04"/>
<path d="M457.097 657.47L483.639 654.903L469.963 631.919C466.741 626.505 462.189 622.064 456.792 619.072L452.864 616.894C449.564 615.063 445.844 614.273 442.171 614.622C429.232 615.851 421.749 630.113 427.606 642.381L427.838 642.867C429.679 646.721 432.642 649.893 436.295 651.918L439.648 653.778C445.033 656.765 451.105 658.049 457.097 657.47Z" fill="#1C0B04"/>
<path d="M717.751 261.736L738.466 279.163L743.501 252.708C744.721 246.299 744.334 239.724 742.375 233.602L740.7 228.367C739.663 225.125 737.759 222.266 735.199 220.105C725.147 211.62 709.582 216.798 705.859 229.863L705.724 230.338C704.675 234.022 704.728 237.912 705.876 241.501L707.371 246.172C709.326 252.283 712.919 257.671 717.751 261.736Z" fill="#1C0B04"/>
<path d="M532.276 350.762L556.82 361.39L554.68 334.437C554.166 327.966 552.06 321.778 548.568 316.482L545.722 312.166C543.782 309.224 541.081 306.936 537.93 305.565C525.993 300.372 512.657 309.761 512.524 323.45L512.52 323.962C512.481 327.961 513.612 331.853 515.759 335.11L518.268 338.915C521.754 344.201 526.611 348.309 532.276 350.762Z" fill="#1C0B04"/>
<path d="M625.061 301.602L648.679 314.318L648.633 287.29C648.622 280.782 647.003 274.428 643.932 268.845L641.388 264.22C639.709 261.168 637.231 258.691 634.237 257.072C622.757 250.867 608.653 259.12 607.463 272.738L607.419 273.243C607.075 277.175 607.887 281.093 609.746 284.472L611.998 288.567C615.063 294.139 619.59 298.657 625.061 301.602Z" fill="#1C0B04"/>
<path d="M452.681 423.775L479.038 427.484L470.513 401.918C468.487 395.843 464.973 390.434 460.332 386.249L456.769 383.035C454.051 380.583 450.727 379.011 447.199 378.509C434.36 376.679 423.912 389.06 427.061 402.375L427.182 402.889C428.139 406.938 430.274 410.577 433.282 413.29L436.373 416.078C441.004 420.255 446.67 422.929 452.681 423.775Z" fill="#1C0B04"/>
<path d="M383.181 513.823L409.723 511.256L396.046 488.272C392.824 482.858 388.272 478.417 382.875 475.425L378.948 473.247C375.648 471.416 371.928 470.626 368.255 470.975C355.316 472.203 347.832 486.466 353.69 498.734L353.922 499.22C355.762 503.074 358.726 506.246 362.378 508.271L365.731 510.131C371.117 513.118 377.188 514.402 383.181 513.823Z" fill="#1C0B04"/>
<path d="M321.582 631.352L348.124 628.786L334.447 605.801C331.226 600.388 326.673 595.947 321.277 592.954L317.349 590.776C314.049 588.946 310.329 588.156 306.656 588.504C293.717 589.733 286.234 603.995 292.091 616.263L292.323 616.749C294.163 620.603 297.127 623.775 300.779 625.801L304.133 627.661C309.518 630.647 315.59 631.932 321.582 631.352Z" fill="#1C0B04"/>
</svg>
